<svg width="169" height="54" viewBox="0 0 169 54" fill="none" xmlns="http://www.w3.org/2000/svg">
<circle cx="27" cy="27" r="27" fill="#0075FF"/>
<path d="M18.7955 13.8182H11.6875V40H18.7955V13.8182ZM21.4482 19.5455H29.3232V40H36.3288V19.5455H44.2038V13.8182H21.4482V19.5455ZM61.2227 40H68.3306V32.2273H72.2681C78.2383 32.2273 82.2397 28.7116 82.2397 23.0739C82.2397 17.5 78.3406 13.8182 72.5238 13.8182H61.2227V40ZM68.3306 26.7045V19.4943H70.8363C73.3292 19.4943 74.8249 20.8239 74.8249 23.0739C74.8249 25.3111 73.3292 26.7045 70.8363 26.7045H68.3306ZM93.9883 40.358C100.38 40.358 104.164 36.267 104.164 30.233C104.164 24.1989 100.38 20.108 93.9883 20.108C87.5962 20.108 83.8121 24.1989 83.8121 30.233C83.8121 36.267 87.5962 40.358 93.9883 40.358ZM94.0394 35.142C92.1474 35.142 91.0224 33.2628 91.0224 30.1818C91.0224 27.1009 92.1474 25.2216 94.0394 25.2216C95.8292 25.2216 96.9542 27.1009 96.9542 30.1818C96.9542 33.2628 95.8292 35.142 94.0394 35.142ZM107.028 40H114.085V29.7727C114.085 27.5227 115.632 26.0398 117.716 26.0398C118.444 26.0398 119.62 26.1548 120.324 26.3977V20.3764C119.761 20.2102 119.147 20.108 118.534 20.108C116.437 20.108 114.801 21.3352 114.085 24.0966H113.88V20.3636H107.028V40ZM135.156 20.3636H131.781V15.6591H124.724V20.3636H122.219V25.4773H124.724V34.3494C124.673 38.4659 127.217 40.5497 132.088 40.2812C133.686 40.1918 134.875 39.8594 135.514 39.6676L134.491 34.7074C134.223 34.7713 133.533 34.9119 133.111 34.9119C132.19 34.9119 131.781 34.5028 131.781 33.6847V25.4773H135.156V20.3636ZM143.507 40.3068C146.064 40.3068 147.995 39.4375 149.184 37.2386H149.337V40H155.934V26.5511C155.934 22.9205 152.495 20.108 146.882 20.108C141.015 20.108 138.125 23.1761 137.882 26.7557H144.377C144.543 25.5412 145.438 24.9659 146.78 24.9659C148.007 24.9659 148.877 25.5284 148.877 26.5511V26.6023C148.877 27.7401 147.624 28.098 144.326 28.3409C140.273 28.6349 137.115 30.2713 137.115 34.5795C137.115 38.4915 139.749 40.3068 143.507 40.3068ZM145.809 35.858C144.607 35.858 143.763 35.2699 143.763 34.1705C143.763 33.1605 144.479 32.3807 146.115 32.125C147.24 31.946 148.186 31.7159 148.928 31.4091V33.0455C148.928 34.8352 147.407 35.858 145.809 35.858ZM166.362 13.8182H159.305V40H166.362V13.8182Z" fill="white"/>
</svg>
