<svg id="Слой_1" data-name="Слой 1" xmlns="http://www.w3.org/2000/svg" viewBox="0 0 259.22 64"><defs><style>.cls-1{fill:#0075ff;}.cls-2{fill:#fff;}</style></defs><circle class="cls-1" cx="32" cy="32" r="32"/><path class="cls-2" d="M181.41,350.32H189V388.1h-7.59Z" transform="translate(-166 -337)"/><path class="cls-2" d="M218.49,350.32v7.52h-9.28V388.1h-7.62V357.84h-9.31v-7.52Z" transform="translate(-166 -337)"/><path class="cls-2" d="M242.83,350.32H256.1a13.26,13.26,0,0,1,13.28,13.24,12.5,12.5,0,0,1-3.91,9.33,12.88,12.88,0,0,1-9.37,3.86h-5.68V388.1h-7.59Zm17.27,9.23a5.43,5.43,0,0,0-4-1.71h-5.68v11.39l5.68,0a5.66,5.66,0,0,0,4-9.7Z" transform="translate(-166 -337)"/><path class="cls-2" d="M304,355.66A19.07,19.07,0,1,1,290.43,350,18.52,18.52,0,0,1,304,355.66Zm-21.68,5.39a11.48,11.48,0,0,0,0,16.27,11.52,11.52,0,1,0,0-16.27Z" transform="translate(-166 -337)"/><path class="cls-2" d="M312.86,350.32h12.33a13.49,13.49,0,0,1,9.89,3.84,13.3,13.3,0,0,1,2.7,3.59,11.72,11.72,0,0,1,1,5v1a12.26,12.26,0,0,1-2.39,7.2,9.9,9.9,0,0,1-4.53,3.49l8.79,13.69h-9.28l-10.85-16.71V388.1h-7.6Zm13.06,18a4.7,4.7,0,0,0,3.54-1.57,5.38,5.38,0,0,0,1.45-3.75,5.11,5.11,0,0,0-1.5-3.63,6.51,6.51,0,0,0-4.69-1.5h-4.26v10.43h2.92v0Z" transform="translate(-166 -337)"/><path class="cls-2" d="M368.67,350.32v7.52h-9.29V388.1h-7.61V357.84h-9.31v-7.52Z" transform="translate(-166 -337)"/><path class="cls-2" d="M381.91,349.54l17.25,38.56h-8.23l-2.55-5.75H375.44l-2.56,5.75h-8.2Zm3.47,26.11-3.45-8-3.49,8Z" transform="translate(-166 -337)"/><path class="cls-2" d="M410,350.32v30.23h15.19v7.55H402.44V350.32Z" transform="translate(-166 -337)"/><rect class="cls-1" x="28" y="57" width="231" height="7" rx="3.5"/><path class="cls-1" d="M230,369s.81,24,10.9,25,3.65,3,.87,3.5S212,397,212,397Z" transform="translate(-166 -337)"/></svg>